<svg width="542" height="568" viewBox="0 0 542 568" fill="none" xmlns="http://www.w3.org/2000/svg">
<path d="M460.7 312.4C453.513 312.4 446.62 315.392 441.537 320.718C436.455 326.044 433.6 333.268 433.6 340.8V351.876L393.492 309.844C386.515 302.485 378.218 296.645 369.079 292.66C359.94 288.674 350.139 286.623 340.241 286.623C330.342 286.623 320.541 288.674 311.402 292.66C302.263 296.645 293.966 302.485 286.989 309.844L268.019 329.724L200.811 259.008C186.42 244.747 167.365 236.801 147.56 236.801C127.754 236.801 108.699 244.747 94.308 259.008L54.2 301.04V142C54.2 134.468 57.0552 127.244 62.1374 121.918C67.2196 116.592 74.1126 113.6 81.3 113.6H298.1C305.287 113.6 312.18 110.608 317.263 105.282C322.345 99.9558 325.2 92.7322 325.2 85.2C325.2 77.6679 322.345 70.4442 317.263 65.1182C312.18 59.7922 305.287 56.8 298.1 56.8H81.3C59.7379 56.8 39.0589 65.7764 23.8122 81.7545C8.56551 97.7326 0 119.404 0 142V482.8C0 505.396 8.56551 527.067 23.8122 543.046C39.0589 559.024 59.7379 568 81.3 568H406.5C428.062 568 448.741 559.024 463.988 543.046C479.235 527.067 487.8 505.396 487.8 482.8V340.8C487.8 333.268 484.945 326.044 479.863 320.718C474.78 315.392 467.887 312.4 460.7 312.4ZM81.3 511.2C74.1126 511.2 67.2196 508.208 62.1374 502.882C57.0552 497.556 54.2 490.332 54.2 482.8V381.412L132.79 299.052C136.771 295.076 142.06 292.858 147.56 292.858C153.059 292.858 158.348 295.076 162.329 299.052L248.236 389.08L364.495 511.2H81.3ZM433.6 482.8C433.374 488.202 431.682 493.424 428.722 497.852L306.501 369.2L325.471 349.32C329.432 345.192 334.79 342.876 340.376 342.876C345.962 342.876 351.32 345.192 355.281 349.32L433.6 432.248V482.8ZM460.7 1.75165e-05C446.42 -0.0095772 432.39 3.92264 420.02 11.401C407.651 18.8793 397.38 29.64 390.24 42.6C388.448 45.8414 387.286 49.4223 386.82 53.1364C386.355 56.8505 386.595 60.6245 387.527 64.2409C388.459 67.8574 390.064 71.2449 392.251 74.2083C394.437 77.1718 397.162 79.6526 400.267 81.508C406.49 85.2106 413.857 86.1838 420.762 84.2152C427.666 82.2466 433.548 77.496 437.123 71C440.081 65.529 444.689 61.2416 450.223 58.8102C455.756 56.3788 461.904 55.9409 467.701 57.5653C473.498 59.1896 478.616 62.7842 482.254 67.7855C485.891 72.7868 487.842 78.9118 487.8 85.2C487.8 92.7322 484.945 99.9558 479.863 105.282C474.78 110.608 467.887 113.6 460.7 113.6C453.513 113.6 446.62 116.592 441.537 121.918C436.455 127.244 433.6 134.468 433.6 142C433.6 149.532 436.455 156.756 441.537 162.082C446.62 167.408 453.513 170.4 460.7 170.4C482.262 170.4 502.941 161.424 518.188 145.446C533.435 129.467 542 107.796 542 85.2C542 62.6036 533.435 40.9326 518.188 24.9545C502.941 8.97642 482.262 1.75165e-05 460.7 1.75165e-05ZM470.998 201.072C466.092 198.688 460.618 197.897 455.28 198.8L450.402 200.504L445.524 203.06L441.459 206.752C438.915 209.439 436.909 212.633 435.559 216.144C434.209 219.656 433.543 223.415 433.6 227.2C433.579 230.938 434.263 234.643 435.612 238.103C436.96 241.563 438.947 244.71 441.459 247.364C443.978 250.026 446.976 252.139 450.278 253.581C453.58 255.022 457.122 255.765 460.7 255.765C464.278 255.765 467.82 255.022 471.122 253.581C474.424 252.139 477.422 250.026 479.941 247.364C482.453 244.71 484.44 241.563 485.788 238.103C487.137 234.643 487.821 230.938 487.8 227.2C487.773 221.593 486.163 216.12 483.173 211.47C480.183 206.821 475.947 203.203 470.998 201.072Z" fill="black"/>
</svg>
